<?xml version="1.0" standalone="no"?>
<!DOCTYPE svg PUBLIC "-//W3C//DTD SVG 20010904//EN"
 "http://www.w3.org/TR/2001/REC-SVG-20010904/DTD/svg10.dtd">
<svg version="1.0" xmlns="http://www.w3.org/2000/svg" viewBox="0 0 5024.000000 1024.000000"
 preserveAspectRatio="xMidYMid meet">

<g transform="translate(0.000000,1024.000000) scale(0.120000,-0.120000)"
fill="#000000" stroke="none">
<path d="M5779 8639 c-144 -47 -271 -68 -544 -89 -492 -39 -754 -115 -1029
-297 -180 -119 -375 -332 -478 -522 -17 -30 -18 -31 -91 -31 -206 0 -384 -70
-530 -209 -173 -163 -250 -351 -251 -606 -1 -149 17 -236 69 -351 113 -248
314 -422 559 -484 95 -24 252 -27 341 -6 l60 14 70 -75 c38 -42 73 -81 77 -87
3 -6 42 -42 86 -79 l80 -68 -57 -80 c-154 -217 -325 -535 -411 -763 -63 -167
-130 -447 -130 -543 0 -28 -9 -40 -57 -78 -78 -61 -260 -150 -358 -175 -472
-121 -914 175 -915 612 0 147 36 250 123 345 131 143 322 160 442 39 55 -55
75 -103 75 -177 0 -84 -17 -119 -96 -194 -98 -94 -117 -152 -75 -233 24 -48
45 -66 105 -93 182 -80 428 166 452 453 26 310 -163 583 -470 677 -83 26 -257
29 -353 6 -287 -68 -500 -301 -568 -620 -27 -127 -24 -325 8 -446 90 -345 358
-625 702 -732 143 -45 193 -52 365 -52 136 0 183 4 270 23 122 28 281 87 363
137 32 19 61 35 65 35 4 0 17 -19 30 -43 34 -65 103 -138 163 -174 103 -62
119 -63 686 -63 l513 0 0 28 c-1 41 -41 151 -80 216 -51 85 -135 158 -243 211
-149 73 -217 87 -462 93 l-209 4 44 24 c124 65 322 101 463 83 113 -14 177
-34 279 -86 199 -102 325 -273 361 -493 l13 -75 367 -3 368 -2 -7 62 c-9 86
-25 136 -68 212 -114 204 -372 328 -651 314 -105 -6 -108 -4 -74 52 17 27 129
268 129 276 0 1 -30 14 -67 29 -171 67 -315 160 -452 291 -88 83 -190 204
-173 204 5 0 15 -7 22 -14 17 -22 246 -155 385 -224 358 -179 668 -263 1180
-319 39 -4 60 -9 48 -11 l-23 -3 0 -323 c0 -373 3 -390 80 -466 53 -54 118
-80 196 -80 68 0 154 32 199 74 l34 33 33 -35 c70 -74 51 -72 644 -72 594 0
590 0 662 70 48 46 77 124 67 178 -9 48 -19 67 -240 407 l-187 290 5 122 c5
121 5 121 36 150 20 18 34 41 37 64 5 31 1 42 -24 70 l-30 34 -284 3 c-155 2
-297 1 -314 -3 -79 -14 -113 -107 -59 -160 13 -14 29 -25 35 -25 6 0 10 -47
10 -131 l0 -131 -156 -242 c-86 -132 -165 -250 -175 -261 -19 -19 -19 -14 -19
246 l0 265 36 35 c117 112 123 288 14 401 -46 48 -50 56 -50 100 0 35 4 48 14
48 22 0 56 49 56 79 0 34 -23 67 -60 86 -41 21 -524 22 -575 1 -66 -28 -76
-99 -20 -152 35 -32 35 -33 35 -118 0 -85 0 -86 28 -92 15 -3 32 -7 37 -8 6
-2 -28 -6 -75 -10 -219 -18 -570 50 -842 165 -221 93 -402 213 -563 372 -55
55 -86 90 -70 79 55 -36 129 -69 250 -111 66 -23 151 -60 190 -81 140 -76 394
-174 570 -219 82 -21 286 -53 293 -46 2 2 -28 20 -68 40 -140 71 -349 211
-333 225 4 4 37 13 73 20 36 6 108 25 160 42 324 103 537 278 725 595 54 92
63 102 100 113 82 23 222 101 283 156 115 104 211 276 248 446 20 93 21 271 1
364 -21 96 -66 208 -112 280 -50 76 -166 189 -239 233 -62 37 -186 85 -186 73
0 -5 24 -55 54 -113 163 -311 183 -741 47 -995 l-21 -39 8 45 c4 25 7 137 7
250 0 193 -2 211 -28 305 -33 118 -114 291 -186 399 -144 213 -370 407 -617
527 l-101 50 -79 -40 c-80 -41 -176 -75 -242 -87 l-37 -7 57 61 c74 81 186
248 238 358 39 83 100 249 100 273 0 15 -13 13 -111 -20z m-568 -1144 c152
-39 300 -144 390 -274 18 -28 36 -51 39 -51 3 0 23 28 45 61 108 163 280 259
468 259 223 0 400 -145 464 -382 13 -46 18 -102 18 -203 0 -119 -4 -151 -23
-215 -42 -132 -87 -206 -189 -308 l-93 -93 25 -38 c83 -132 70 -265 -39 -396
-59 -72 -97 -103 -191 -161 -236 -145 -673 -192 -1002 -109 -196 50 -370 168
-429 292 -54 113 -39 286 31 379 l23 30 -66 45 c-166 112 -262 312 -262 546 0
194 52 318 189 454 97 97 186 148 306 174 83 18 204 14 296 -10z m-1448 -234
c66 -32 135 -105 170 -179 27 -57 30 -76 38 -225 8 -144 18 -234 35 -319 5
-23 -2 -31 -60 -73 -99 -70 -159 -88 -286 -83 -95 3 -112 6 -172 36 -120 59
-217 181 -253 317 -28 110 -16 255 30 345 44 87 135 169 219 196 66 22 220 14
279 -15z m2848 -2137 c0 -4 -17 -9 -36 -11 -44 -4 -129 -37 -167 -64 l-28 -20
0 55 0 55 113 3 c104 3 119 0 118 -18z m949 -469 l0 -165 118 -178 c333 -498
322 -477 268 -530 l-26 -27 -473 -1 c-259 -1 -489 3 -510 8 -41 10 -77 54 -77
95 0 12 60 110 133 218 72 108 165 246 204 308 l73 112 0 163 0 162 145 0 145
0 0 -165z m-940 -474 c0 -187 -4 -331 -10 -346 -18 -48 -58 -75 -110 -75 -57
0 -91 23 -113 78 -13 32 -14 83 -10 329 l6 292 46 6 c25 3 75 12 111 19 36 7
68 14 73 15 4 0 7 -143 7 -318z"/>
<path d="M5060 6828 c-65 -33 -101 -90 -107 -169 -6 -84 21 -140 91 -186 39
-27 58 -33 100 -33 138 0 241 122 207 246 -36 134 -174 201 -291 142z"/>
<path d="M6041 6843 c-38 -7 -119 -95 -127 -137 -13 -71 0 -143 33 -184 71
-88 168 -107 263 -49 74 44 103 99 98 184 -8 137 -118 214 -267 186z"/>
<path d="M5521 6324 c-24 -31 -25 -33 -10 -71 27 -71 100 -112 199 -113 135 0
239 85 205 166 -24 57 -72 59 -116 4 -29 -36 -37 -40 -77 -40 -38 0 -51 6 -88
40 -52 47 -84 51 -113 14z"/>
<path d="M5502 5957 c-27 -29 -28 -51 -2 -77 18 -18 33 -20 195 -20 162 0 177
2 195 20 25 25 26 62 2 83 -16 15 -45 17 -194 17 -170 0 -175 -1 -196 -23z"/>
<path d="M7153 4098 c-23 -26 -133 -198 -133 -209 0 -15 81 -18 420 -14 195 3
358 5 363 5 4 0 7 5 7 11 0 11 -110 179 -138 212 -14 15 -39 17 -257 17 -238
0 -242 0 -262 -22z"/>
<path d="M5920 8303 c-8 -21 -15 -41 -15 -45 0 -4 33 -23 73 -43 86 -41 247
-146 335 -217 34 -28 109 -98 165 -156 94 -95 102 -101 82 -61 -69 135 -190
276 -330 384 -72 55 -266 175 -284 175 -7 0 -18 -17 -26 -37z"/>
<path d="M7345 5531 c-138 -62 -151 -244 -25 -327 103 -69 241 -19 275 100 26
90 -15 185 -97 225 -54 26 -100 26 -153 2z"/>
<path d="M3287 3425 c-82 -29 -123 -101 -115 -204 5 -70 37 -120 98 -151 39
-20 61 -20 1420 -20 l1380 0 0 -670 c0 -738 -2 -710 63 -767 42 -36 82 -47
142 -38 59 8 106 42 133 95 l22 44 0 668 0 668 499 0 500 0 3 -672 c3 -744 0
-704 68 -762 92 -77 233 -48 289 61 8 15 11 218 11 697 l0 676 108 0 c92 0
114 3 152 23 77 38 118 123 99 206 -14 66 -53 119 -102 142 -41 18 -104 19
-2387 18 -1960 0 -2351 -2 -2383 -14z"/>
<path d="M3698 2890 c-46 -14 -85 -48 -102 -90 -14 -35 -16 -104 -16 -548 0
-318 4 -521 10 -544 30 -106 148 -164 247 -123 48 20 71 41 94 87 18 35 19 66
19 508 l0 470 475 0 475 0 0 -462 c0 -514 0 -513 68 -570 91 -76 229 -51 282
52 19 38 20 57 20 568 l0 529 -23 44 c-16 31 -36 51 -67 67 l-44 22 -706 -1
c-388 0 -717 -4 -732 -9z"/>
</g>
<g><g fill="#000000"><g transform="translate(1100, 0) scale(10)"><path d="M29.10 52.25L29.10 61.04L7.35 61.04L7.35 52.25L11.35 52.25L11.35 30.79L7.91 30.79L6.86 37.48L0 37.48L0 22.19L36.55 22.19L36.55 37.48L29.71 37.48L28.66 30.79L25.10 30.79L25.10 52.25L29.10 52.25ZM47.80 61.47Q45.31 61.47 43.29 60.50Q41.24 59.55 40.01 57.74Q38.79 55.93 38.79 53.54Q38.79 50.95 40.23 49.15Q41.67 47.39 44.01 46.51Q46.34 45.63 49.05 45.63Q52.25 45.63 55.20 46.58L55.20 45.48Q55.20 43.53 53.55 42.50Q51.90 41.48 49.10 41.48Q47.90 41.48 46.41 41.77Q44.92 42.07 43.51 42.58Q42.09 43.09 41.04 43.73L40.33 43.43L40.33 36.33Q43.29 35.28 46.36 34.83Q49.44 34.38 52.10 34.38Q66.94 34.38 66.94 42.72L66.94 53.69L69.24 53.69L69.24 61.04L56.74 61.04L55.64 57.03Q54.59 59.08 52.37 60.28Q50.15 61.47 47.80 61.47M52.39 55.22Q53.20 55.22 54.04 54.96Q54.88 54.69 55.20 54.39L55.20 50.29Q54.83 50.24 54.03 50Q53.20 49.78 52.59 49.78Q51.29 49.78 50.52 50.59Q49.76 51.39 49.76 52.73Q49.76 53.74 50.48 54.48Q51.20 55.22 52.39 55.22ZM102.29 42.43L98.10 45.95L103.15 53.69L106.98 53.69L106.98 61.04L95.34 61.04L88.18 50.34L88.18 61.04L72.19 61.04L72.19 53.69L76.49 53.69L76.49 31.18L72.19 31.18L72.19 24.54L88.18 22.92L88.18 46.68L93.29 42.43L90.60 42.43L90.60 34.89L106.20 34.89L106.20 42.43L102.29 42.43ZM123.22 61.47Q118.68 61.47 115.33 59.79Q111.96 58.13 110.17 55.03Q108.37 51.93 108.37 47.78Q108.37 43.68 110.13 40.65Q111.87 37.65 115.04 36.01Q118.21 34.38 122.49 34.38Q126.42 34.38 129.42 35.91Q132.42 37.48 134.07 40.33Q135.72 43.19 135.72 47.00Q135.72 48.32 135.33 49.49L120.12 49.49Q120.12 51.78 121.85 53.16Q123.58 54.54 126.03 54.54Q127.88 54.54 130.10 53.89Q132.32 53.25 134.57 51.88L134.99 52.03L134.99 58.59Q132.47 60.03 129.82 60.75Q127.17 61.47 123.22 61.47M120.12 44.48L120.12 45.19L126.37 45.19L126.37 44.68Q126.37 42.94 125.57 41.69Q124.78 40.43 123.22 40.43Q121.92 40.43 121.02 41.71Q120.12 42.99 120.12 44.48ZM168.90 52.44L168.90 61.04L152.49 61.04L152.49 52.44L157.20 52.44L157.20 30.79L152.49 30.79L152.49 22.19L173.44 22.19L180.98 40.89L188.45 22.19L207.98 22.19L207.98 30.79L203.30 30.79L203.30 52.44L207.98 52.44L207.98 61.04L187.65 61.04L187.65 52.44L190.80 52.44L190.80 37.94L182.20 61.04L175.15 61.04L164.99 37.38L164.99 52.44L168.90 52.44ZM235.47 62.52L235.47 70.24L218.58 70.24L218.58 62.52L223.54 62.52L224.88 60.28L213.48 42.43L210.38 42.43L210.38 34.89L228.69 34.89L228.69 42.43L226.27 42.43L230.32 49.93L234.03 42.43L231.37 42.43L231.37 34.89L245.02 34.89L245.02 42.43L242.38 42.43L231.71 62.52L235.47 62.52ZM277.49 52.44L277.49 61.04L260.35 61.04L260.35 52.44L264.21 52.44L270.90 30.79L265.80 30.79L265.80 22.19L289.99 22.19L298.66 52.44L302.49 52.44L302.49 61.04L280.64 61.04L280.64 52.44L283.81 52.44L282.76 48.29L273.95 48.29L272.85 52.44L277.49 52.44M281.59 42.38L278.76 30.49L275.20 42.38L281.59 42.38ZM322.05 70.73L304.05 70.73L304.05 63.33L307.20 63.33L307.20 42.43L304.05 42.43L304.05 35.89L318.90 34.38L318.90 38.53Q320.14 36.79 322.12 35.58Q324.10 34.38 326.76 34.38Q330.25 34.38 332.71 36.18Q335.18 37.99 336.41 41.04Q337.65 44.09 337.65 47.83Q337.65 51.54 336.43 54.69Q335.21 57.79 332.73 59.63Q330.25 61.47 326.71 61.47Q324.24 61.47 322.23 60.51Q320.21 59.55 318.90 58.13L318.90 63.38L322.05 63.38L322.05 70.73M322.41 54.35Q324.61 54.35 325.66 52.59Q326.71 50.83 326.71 47.97Q326.71 45.04 325.56 43.29Q324.41 41.53 322.56 41.53Q321.31 41.53 320.31 42.15Q319.31 42.77 318.90 43.77L318.90 52.25Q320.00 54.35 322.41 54.35ZM355.79 61.47Q351.25 61.47 347.90 59.79Q344.53 58.13 342.74 55.03Q340.94 51.93 340.94 47.78Q340.94 43.68 342.70 40.65Q344.43 37.65 347.61 36.01Q350.78 34.38 355.05 34.38Q358.98 34.38 361.99 35.91Q364.99 37.48 366.64 40.33Q368.29 43.19 368.29 47.00Q368.29 48.32 367.90 49.49L352.69 49.49Q352.69 51.78 354.42 53.16Q356.15 54.54 358.59 54.54Q360.45 54.54 362.67 53.89Q364.89 53.25 367.14 51.88L367.55 52.03L367.55 58.59Q365.04 60.03 362.39 60.75Q359.74 61.47 355.79 61.47M352.69 44.48L352.69 45.19L358.94 45.19L358.94 44.68Q358.94 42.94 358.14 41.69Q357.35 40.43 355.79 40.43Q354.49 40.43 353.59 41.71Q352.69 42.99 352.69 44.48Z"/></g></g></g>
</svg>
