<svg
  width="156"
  height="31"
  viewBox="0 0 156 31"
  xmlns="http://www.w3.org/2000/svg"
  xmlns:xlink="http://www.w3.org/1999/xlink"
>
  <g id="ss11698903078_1" transform="translate(0.5 0)">
    <!-- transparent hit-area -->
    <path
      d="M 0 30.212 L 0 0.5 L 155 0.5 L 155 30.212 Z"
      fill="transparent"
    />
    <!-- “Semiliquid” in orange -->
    <path
      d="M 4.103 0.021 C 6.574 -0.182 8.515 1.123 9.162 3.49 C 10.231 7.405 7.4 10.273 3.425 9.097 C -1.396 7.67 -0.966 0.436 4.103 0.021 Z
         M 14.571 0.021 C 18.861 -0.328 20.282 4.567 20.624 7.952 C 20.9 10.68 20.636 12.915 17.207 11.938 C 14.859 11.269 11.972 9.219 10.999 6.945 C 9.726 3.971 11.028 0.309 14.571 0.021 Z
         M 25.212 0.02 C 27.293 -0.113 28.779 0.741 29.48 2.7 C 30.116 4.476 30.021 8.278 29.854 10.203 C 29.58 13.367 28.153 16.795 24.941 13.232 C 22.647 10.689 20.024 4.93 22.027 1.715 C 22.703 0.631 23.962 0.1 25.212 0.021 Z
         M 9.385 22.595 C 8.167 21.83 5.441 20.659 4.017 20.753 C -1.08 21.088 -1.394 28.704 3.46 29.538 C 5.751 29.932 8.396 29.477 10.373 28.25 C 13.529 26.29 11.778 24.097 9.385 22.595 Z
         M 23.231 18.182 C 21.754 15.533 18.125 12.649 14.934 12.816 C 12.36 12.951 11.883 15.306 12.691 17.358 C 13.848 20.293 17.47 22.486 20.512 22.966 C 24.352 23.572 24.819 21.032 23.231 18.182 Z
         M 9.002 12.886 C 7.811 11.418 6.186 10.214 4.189 10.365 C -0.631 10.728 -1.398 17.196 2.637 19.159 C 4.44 20.036 8.319 20.387 10.055 19.293 C 12.256 17.906 10.18 14.339 9.002 12.886 Z
         M 18.813 23.863 C 20.529 23.861 25.024 24.335 24.253 26.995 C 23.668 29.014 20.726 29.545 18.934 29.679 C 17.065 29.819 14.127 29.456 13.894 27.103 C 13.637 24.513 16.842 23.865 18.814 23.863 Z
         M 27.271 16.368 C 28.768 16.266 29.754 17.43 29.934 18.808 C 30.175 20.644 30.13 24.022 27.435 23.758 C 24.443 23.464 23.995 16.589 27.271 16.368 Z
         M 27.7 24.966 C 30.688 24.672 30.913 30.224 27.392 29.674 C 24.095 29.159 24.789 25.253 27.7 24.966 Z"
      fill="rgb(255,97,50)"
    />
    <!-- “Semiliquid” in light gray/white -->
    <path
      d="M 35.869 17.855 L 38.865 17.855 C 39.075 20.358 40.572 22.051 44.094 22.051 C 47.115 22.051 48.034 20.748 48.034 19.054 C 48.034 16.797 46.367 16.381 43.26 15.605
         L 43.254 15.604 L 43.132 15.573 L 43.027 15.547 C 42.946 15.526 42.863 15.506 42.78 15.485 C 39.838 14.703 36.606 13.764 36.606 10.221
         C 36.606 6.99 39.127 5.139 43.175 5.139 C 47.457 5.139 50.242 7.303 50.531 11.055 L 47.536 11.055 C 47.22 8.814 45.934 7.59 43.2 7.59
         C 40.836 7.59 39.627 8.45 39.627 10.065 C 39.627 12.106 41.516 12.573 43.863 13.154 L 44.015 13.191 C 47.641 14.103 51.056 14.963 51.056 18.899
         C 51.056 22.104 48.875 24.502 44.172 24.502 C 39.469 24.502 36.08 22.051 35.869 17.855 Z
         M 52.239 17.464 C 52.239 13.294 54.762 10.428 58.86 10.428 C 62.957 10.428 65.218 13.086 65.218 17.202 C 65.218 17.567 65.218 17.958 65.192 18.167
         L 54.893 18.167 C 54.945 20.382 56.259 22.441 58.913 22.441 C 61.277 22.441 62.197 20.929 62.434 20.043 L 65.062 20.043 C 64.353 22.597 62.382 24.526 58.861 24.526
         C 54.605 24.526 52.24 21.529 52.24 17.464 Z
         M 62.538 16.162 C 62.538 14.077 61.067 12.514 58.78 12.514 C 56.626 12.514 55.05 13.973 54.891 16.162 Z
         M 69.239 15.979 C 69.239 13.973 70.448 12.644 72.366 12.644 L 72.367 12.643 C 74.339 12.643 74.706 13.841 74.706 15.613 L 74.706 24.134 L 77.281 24.134 L 77.281 15.978
         C 77.281 13.972 78.436 12.643 80.407 12.643 C 82.378 12.643 82.746 13.841 82.746 15.613 L 82.746 24.134 L 85.321 24.134 L 85.321 14.91 C 85.321 12.071 83.953 10.455 81.247 10.455
         C 79.198 10.455 77.833 11.497 76.86 12.774 L 76.807 12.774 C 76.281 11.289 75.125 10.455 73.259 10.455 C 71.236 10.455 70 11.498 69.291 12.514 L 69.239 12.514 L 69.239 10.846 L 66.665 10.846 L 66.665 24.136
         L 69.239 24.136 Z
         M 87.29 5.712 L 90.207 5.712 L 90.207 8.474 L 87.29 8.474 Z
         M 87.447 10.846 L 90.022 10.846 L 90.022 24.136 L 87.447 24.136 Z
         M 95.068 5.503 L 92.178 5.503 L 92.178 24.134 L 104.579 24.134 L 104.579 21.659 L 95.068 21.659 Z
         M 105.736 5.712 L 108.652 5.712 L 108.652 8.474 L 105.736 8.474 Z
         M 105.893 10.846 L 108.468 10.846 L 108.468 24.136 L 105.893 24.136 Z
         M 115.956 10.455 C 112.54 10.455 109.939 13.112 109.939 17.49 C 109.939 21.867 112.54 24.499 115.956 24.499 C 118.058 24.499 119.345 23.508 120.081 22.571
         L 120.133 22.571 L 120.133 28.747 L 122.708 28.747 L 122.708 10.845 L 120.133 10.845 L 120.133 12.461 L 120.081 12.461 C 119.345 11.419 118.058 10.455 115.956 10.455 Z
         M 120.108 17.491 C 120.108 20.488 118.689 22.39 116.377 22.39 C 113.854 22.39 112.619 20.096 112.619 17.491 C 112.619 14.886 113.854 12.593 116.377 12.593 C 118.689 12.593 120.108 14.495 120.108 17.491 Z
         M 140.891 5.712 L 137.975 5.712 L 137.975 8.474 L 140.891 8.474 Z
         M 140.707 10.846 L 138.132 10.846 L 138.132 24.136 L 140.707 24.136 Z
         M 142.231 17.491 C 142.231 13.113 144.832 10.455 148.248 10.455 C 150.35 10.455 151.637 11.419 152.373 12.461 L 152.425 12.461 L 152.425 5.503 L 155 5.503 L 155 24.136 L 152.425 24.136 L 152.425 22.572 L 152.373 22.572 C 151.637 23.51 150.35 24.5 148.248 24.5 C 144.832 24.5 142.231 21.868 142.231 17.491 Z
         M 148.669 22.39 C 150.981 22.39 152.399 20.488 152.399 17.491 C 152.399 14.495 150.98 12.593 148.669 12.593 C 146.146 12.593 144.911 14.886 144.911 17.491 C 144.911 20.096 146.146 22.39 148.669 22.39 Z
         M 124.575 20.045 L 124.575 10.846 L 127.15 10.846 L 127.15 19.341 C 127.15 21.139 127.938 22.338 129.883 22.338 C 132.09 22.338 133.51 21.009 133.51 19.003 L 133.51 10.846 L 136.084 10.846 L 136.084 24.136 L 133.51 24.136 L 133.51 22.468 L 133.458 22.468 C 132.749 23.484 131.339 24.5 129.043 24.5 C 126.573 24.5 124.576 23.093 124.576 20.045 Z"
      fill="rgb(0, 0, 0)"
    />
  </g>
</svg>
